<svg width="47" height="45" viewBox="0 0 47 45" fill="none" xmlns="http://www.w3.org/2000/svg">
<path d="M3.83333 0C1.71302 0 0 1.25684 0 2.8125C0 4.36816 1.71302 5.625 3.83333 5.625V6.5918C3.83333 10.3184 5.85781 13.8955 9.45156 16.5322L17.5734 22.5L9.45156 28.4678C5.85781 31.1045 3.83333 34.6816 3.83333 38.4082V39.375C1.71302 39.375 0 40.6318 0 42.1875C0 43.7432 1.71302 45 3.83333 45H7.66667H38.3333H42.1667C44.287 45 46 43.7432 46 42.1875C46 40.6318 44.287 39.375 42.1667 39.375V38.4082C42.1667 34.6816 40.1422 31.1045 36.5484 28.4678L28.4266 22.5L36.5604 16.5322C40.1542 13.8955 42.1786 10.3184 42.1786 6.5918V5.625C44.299 5.625 46.012 4.36816 46.012 2.8125C46.012 1.25684 44.299 0 42.1786 0H38.3333H7.66667H3.83333ZM34.5 38.4082V39.375H11.5V38.4082C11.5 36.167 12.7099 34.0225 14.8661 32.4404L23 26.4814L31.1339 32.4492C33.2901 34.0312 34.5 36.1758 34.5 38.417V38.4082Z" fill="#FF8B03"/>
</svg>
