<svg width="50" height="40" viewBox="0 0 50 40" fill="none" xmlns="http://www.w3.org/2000/svg">
<path d="M5.55556 0.75C2.49132 0.75 0 3.21641 0 6.25V9H50V6.25C50 3.21641 47.5087 0.75 44.4444 0.75H5.55556ZM50 17.25H0V33.75C0 36.7836 2.49132 39.25 5.55556 39.25H44.4444C47.5087 39.25 50 36.7836 50 33.75V17.25ZM9.72222 28.25H15.2778C16.0417 28.25 16.6667 28.8687 16.6667 29.625C16.6667 30.3813 16.0417 31 15.2778 31H9.72222C8.95833 31 8.33333 30.3813 8.33333 29.625C8.33333 28.8687 8.95833 28.25 9.72222 28.25ZM19.4444 29.625C19.4444 28.8687 20.0694 28.25 20.8333 28.25H31.9444C32.7083 28.25 33.3333 28.8687 33.3333 29.625C33.3333 30.3813 32.7083 31 31.9444 31H20.8333C20.0694 31 19.4444 30.3813 19.4444 29.625Z" fill="#FF8B03"/>
</svg>
