<?xml version="1.0" standalone="no"?>
<!DOCTYPE svg PUBLIC "-//W3C//DTD SVG 20010904//EN"
 "http://www.w3.org/TR/2001/REC-SVG-20010904/DTD/svg10.dtd">
<svg version="1.0" xmlns="http://www.w3.org/2000/svg"
 width="360.000000pt" height="360.000000pt" viewBox="0 0 360.000000 360.000000"
 preserveAspectRatio="xMidYMid meet">
<metadata>
Created by potrace 1.14, written by Peter Selinger 2001-2017
</metadata>
<g transform="translate(0.000000,360.000000) scale(0.100000,-0.100000)"
fill="#000000" stroke="none">
<path d="M3226 2181 c27 -10 64 -25 80 -34 34 -18 111 -89 137 -127 13 -19 15
-20 10 -5 -7 24 -45 77 -76 107 -29 27 -112 65 -162 72 -39 5 -39 5 11 -13z"/>
<path d="M3235 2118 c41 -15 83 -45 123 -86 17 -19 32 -30 32 -24 0 31 -126
123 -167 121 -11 0 -6 -5 12 -11z"/>
<path d="M3218 2063 c7 -3 16 -2 19 1 4 3 -2 6 -13 5 -11 0 -14 -3 -6 -6z"/>
<path d="M3256 2052 c5 -4 27 -23 49 -42 21 -19 33 -26 25 -15 -19 26 -62 64
-74 65 -6 0 -6 -3 0 -8z"/>
<path d="M1655 2012 c-52 -10 -80 -67 -73 -146 l3 -38 45 61 c43 58 47 60 91
61 76 0 76 -12 -1 -112 l-69 -90 69 -90 c38 -50 67 -95 64 -99 -3 -5 -29 -9
-58 -9 -52 0 -53 0 -92 55 -21 30 -43 55 -48 55 -4 0 -6 -27 -4 -60 4 -49 9
-66 31 -88 l27 -27 778 -3 c705 -3 780 -1 808 13 18 9 37 28 43 41 7 16 11 97
11 219 l0 195 -29 32 -29 33 -774 0 c-425 1 -782 -1 -793 -3z"/>
<path d="M317 1923 c-6 -10 -71 -132 -136 -255 -28 -54 -47 -98 -43 -98 4 0
30 42 56 93 27 50 69 130 93 176 24 46 42 85 39 88 -2 2 -6 1 -9 -4z"/>
<path d="M271 1750 c-79 -154 -89 -180 -72 -180 11 0 26 -2 33 -5 10 -4 30 25
67 97 29 57 57 107 61 112 5 5 32 -38 61 -97 53 -106 66 -119 111 -109 14 3 1
34 -74 180 -50 97 -92 178 -93 179 -1 2 -43 -78 -94 -177z"/>
<path d="M580 1751 c0 -162 2 -179 18 -183 46 -11 50 -3 48 103 -1 114 3 128
30 105 34 -28 266 -206 269 -206 2 0 3 81 3 180 l0 180 -35 0 -34 0 1 -87 c1
-49 1 -101 1 -116 l-1 -28 -42 34 c-24 18 -91 70 -150 116 l-108 82 0 -180z"/>
<path d="M1012 1913 c8 -10 43 -53 77 -96 l61 -78 0 -83 c0 -83 0 -84 28 -89
15 -3 29 -3 31 -1 3 3 5 43 5 89 l1 85 64 83 c36 45 69 88 74 95 7 9 0 12 -31
12 -38 0 -44 -4 -87 -60 -25 -33 -50 -60 -54 -60 -4 0 -27 27 -51 60 -42 58
-45 60 -88 60 -42 0 -44 -1 -30 -17z"/>
<path d="M1410 1924 c0 -3 24 -35 53 -72 72 -90 84 -111 71 -120 -10 -7 -124
-157 -124 -163 0 -2 17 -4 37 -3 34 1 43 7 86 60 26 32 51 60 55 61 4 1 28
-26 53 -60 43 -59 48 -62 87 -62 48 0 46 -1 30 17 -7 7 -39 48 -71 90 l-59 77
48 63 c27 35 56 72 66 82 26 29 22 36 -20 36 -35 0 -42 -5 -83 -60 -24 -32
-48 -59 -54 -59 -5 0 -30 26 -53 59 -41 56 -47 60 -83 60 -21 0 -39 -2 -39 -6z"/>
</g>
</svg>
